<?xml version="1.0" encoding="utf-8"?>
<!-- Generator: Adobe Illustrator 23.0.1, SVG Export Plug-In . SVG Version: 6.00 Build 0)  -->
<svg version="1.1" id="Layer_1" xmlns="http://www.w3.org/2000/svg" xmlns:xlink="http://www.w3.org/1999/xlink" x="0px" y="0px"
	 viewBox="0 0 862 474" style="enable-background:new 0 0 862 474;" xml:space="preserve">
<g>
	<g>
		<polygon points="20.5,18.6 20.5,276.8 170.6,276.8 170.6,253.2 46.4,253.2 46.4,18.6 		"/>
		<path d="M206.1,276.8h23.6V102h-23.6V276.8z M204.2,66.2h27.3V35.5h-27.3V66.2z"/>
		<path d="M270.3,276.8h23.6V102h-23.6V276.8z M268.5,66.2h27.3V35.5h-27.3V66.2z"/>
		<path d="M358.2,276.8v-94.4c0-31.4,19.2-62.7,53.9-62.7c29.9,0,45,16.6,45,49.8v107.4h23.6V164.3c0-39.8-20.7-66-62-66
			c-25.8,0-47.2,14-60.5,35.8V102h-23.6v174.9H358.2z"/>
		<polygon points="594.3,171.7 659.2,102 629.7,102 544.9,194.5 544.9,18.6 521.2,18.6 521.2,276.8 544.9,276.8 544.9,225.2 
			577.7,190.1 637.5,276.8 667.3,276.8 		"/>
	</g>
	<path d="M239.6,326.9h-37.8v3.2h11.9v62.7c0,18.9-5.4,24.3-16.7,24.3c-7.6,0-8.6-5.4-8.6-8.6c0-7-0.5-10.8-6.5-10.8
		c-6.5,0-7,6.5-7,8.1c0,8.6,3.8,15.1,21.1,15.1c20.5,0,31.3-7,31.3-29.7v-61h12.4V326.9z"/>
	<path d="M244.5,406.8c-2.2,0-3.8,0.5-5.4,2.2c-1.6,1.6-2.2,3.2-2.2,5.4c0,2.2,0.5,3.8,2.2,5.4c1.6,1.6,3.2,2.2,5.4,2.2
		c2.2,0,3.8-0.5,5.4-2.2c1.6-1.6,2.2-3.2,2.2-5.4c0-2.2-0.5-3.8-2.2-5.4C248.8,407.3,246.6,406.8,244.5,406.8"/>
	<path d="M328.7,406.8c-2.2,0-3.8,0.5-5.4,2.2c-1.6,1.6-2.2,3.2-2.2,5.4c0,2.2,0.5,3.8,2.2,5.4c1.6,1.6,3.2,2.2,5.4,2.2
		c2.2,0,3.8-0.5,5.4-2.2c1.6-1.6,2.2-3.2,2.2-5.4c0-2.2-0.5-3.8-2.2-5.4C332.5,407.3,330.9,406.8,328.7,406.8"/>
	<path d="M302.3,326.9H265v3.2h10.8v71.8c0,5.4-0.5,7-1.1,8.6c-0.5,1.6-2.2,3.2-4.3,4.3c-1.6,0.5-4.3,1.1-7.6,1.1v2.7h40V416
		c-3.2,0-5.9-0.5-7.6-1.1c-2.2-1.1-3.8-2.2-4.9-4.3c-0.5-1.6-1.1-3.2-1.1-5.9v-24.3h9.7c28.6,0,36.7-11.3,36.7-27
		C336.3,337.7,331.4,326.9,302.3,326.9 M297.4,376.6h-7.6v-45.9h7c22.1,0,27,9.2,27,23.8C323.3,369,314.7,376.6,297.4,376.6"/>
	<path d="M454.6,410.1c-0.5-1.6-0.5-3.8-0.5-6.5v-73.5h9.7v-2.7H440c-0.5,1.1-28.1,70.2-28.1,70.2l-0.5,0.5c-0.5,0-0.5,0-0.5-0.5
		c0,0-29.7-69.1-29.7-70.2h-25.9v2.7h11.3v71.3v6.5c0,1.6-0.5,3.2-1.6,4.3c-1.1,1.1-2.2,2.2-4.3,3.2c-1.1,0.5-3.2,0.5-5.4,0.5v2.7
		h25.9V416c-2.2,0-3.2-0.5-4.3-0.5c-2.2-0.5-3.2-1.6-4.3-2.7c-1.1-1.1-1.6-2.7-1.6-4.3l-0.5-6.5v-62.1h1.6c0,0,33.5,78.3,34,78.9
		h2.7l30.8-78.3h0.5v63.2c0,2.7-0.5,4.9-0.5,6.5c-0.5,2.2-2.2,3.2-3.8,4.3c-1.6,0.5-3.8,1.1-6.5,1.1v3.2h36.2V416
		c-2.7,0-4.9-0.5-6.5-1.1C456.7,413.8,455.1,412.2,454.6,410.1"/>
	<path d="M503.2,351.7c-19.4,0-31.3,13-31.3,35.1c0,33,25.4,35.1,30.8,35.1c10.8,0,31.3-7,31.3-35.7
		C534.6,363.6,521,351.7,503.2,351.7 M503.2,417.6c-14.6,0-16.7-7-16.7-30.3c0-17.8,1.1-31.3,16.7-31.3c16.7,0,16.7,14,16.7,30.3
		C520,409.5,516.2,417.6,503.2,417.6"/>
	<path d="M584.8,352.3c-11.3,0-15.1,7-18.4,13.5h-1.1c0,0-1.6-10.3-2.2-13H541v3.2h11.9v14v31.3c0,4.3-0.5,7.6-1.6,9.7
		c-1.1,2.2-3.8,3.2-8.6,3.2h-2.2v4.3h37.3v-3.8h-2.2c-4.9,0-7-1.1-8.1-3.2c-1.1-1.6-1.6-4.9-1.6-9.7v-23.8c0-8.1,5.9-16.7,13-16.7
		c7.6,0,7.6,11.3,15.7,7C599.9,365.8,599.4,352.3,584.8,352.3"/>
	<path d="M733.9,412.2c-3.8,0-5.4-2.2-5.4-5.9v-8.6V370c0-5.9-1.1-9.7-4.3-13.5c-3.2-3.2-10.3-5.4-20-5.4c-9.2,0-16.2,1.6-20.5,4.9
		c-4.3,3.2-5.9,6.5-5.9,10.8c0,2.2,0.5,3.2,1.6,4.3c1.1,1.1,2.7,1.6,4.3,1.6c3.8,0,5.9-2.2,6.5-7c0.5-3.8,1.6-5.9,3.2-7.6
		c2.2-2.2,4.9-3.2,9.2-3.2c4.9,0,8.1,1.1,9.7,3.8c1.6,2.2,2.7,5.4,2.7,9.7v10.8c-11.9,1.1-40.5,3.2-38.9,24.8
		c0.5,8.6,8.1,15.7,17.3,15.7c10.8,0,17.3-5.9,22.1-10.8c0.5,4.9,4.9,10.3,13,10.3c8.6,0,14-4.3,14.6-15.1h-2.2
		C739.3,409.5,736.1,412.2,733.9,412.2 M714.5,405.2C714.5,405.2,714.5,405.7,714.5,405.2l-0.5,0.5c-6.5,5.9-11.3,8.1-15.1,8.1
		c-9.2,0-10.8-7.6-10.8-11.3c0-12.4,16.7-18.4,25.9-18.4v21.1H714.5z"/>
	<path d="M810.6,411.6c-1.1-1.6-2.2-4.9-2.2-9.7v-29.7c0-4.3-0.5-8.1-2.2-10.8c-1.6-2.7-3.8-5.4-7-6.5c-2.7-1.6-6.5-2.2-9.7-2.2
		c-13,0-18.4,8.1-21.1,13h-1.1l-2.2-11.9h-20.5v3.2H755v45.4c0,3.8-0.5,5.9-0.5,7.6c-0.5,2.2-1.6,3.2-3.8,4.3
		c-1.1,0.5-3.2,1.1-5.4,1.1v3.2h32.4v-4.3c-3.2,0-5.4-1.1-6.5-2.7c-1.1-1.6-1.6-4.9-1.6-9.2v-17.3c0-7,0-14,2.7-18.4
		c2.7-4.9,7.6-7.6,13-7.6c4.9,0,7.6,1.6,9.2,4.9c1.1,2.7,2.2,10.3,2.2,15.1v21.6c0,3.8,0.5,6.5,0,8.1c-0.5,2.2-1.1,3.8-2.7,4.3
		c-1.1,0.5-2.7,1.1-5.4,1.6v3.8h31.3v-4.3C814.4,414.3,811.7,413.2,810.6,411.6"/>
	<path d="M664.2,349c-2.2,0.5-3.2,2.2-3.8,5.4c-0.5,2.7-1.6,4.3-2.7,4.9c-1.6,0.5-2.7,0.5-4.9-0.5c-3.2-3.2-9.7-7-21.1-7
		c-18.4,0-26.5,13-26.5,24.8c0,14,5.4,20.5,17.3,23.2c0.5,0,0.5,1.1,0,1.1c-10.3,2.2-18.9,4.9-18.9,14.6c0,5.9,3.2,8.6,7.6,10.8
		c4.9,1.6,11.3,2.7,19.4,3.2c7,0,12.4,0.5,15.7,0.5c3.8,0.5,6.5,1.6,8.6,2.7c2.2,1.6,3.2,4.3,3.2,7.6c0,4.3-2.2,8.1-7,10.8
		c-4.3,2.7-10.3,3.8-17.8,3.8c-6.5,0-11.3-0.5-16.2-3.8c-3.2-2.2-4.3-6.5-3.2-9.2c0.5-3.2-0.5-6.5-3.8-7c-2.2-0.5-4.3,0.5-5.4,2.7
		c-1.1,1.6-1.6,3.8-1.6,5.9c0,7.6,5.9,11.3,10.8,13c7,2.2,11.9,2.7,18.4,2.7c8.6,0,15.7-1.1,20.5-3.8c4.9-2.7,8.6-5.4,10.3-9.2
		c2.2-3.8,2.7-7,2.7-10.8c0-4.9-1.1-8.6-3.2-11.3c-6.5-9.2-15.7-7.6-36.7-8.6c-10.3,0-11.9-1.6-11.9-4.9c0-4.3,3.8-6.5,18.4-8.6
		c14-2.2,27.6-7.6,27.6-24.8c0-4.9-1.1-9.2-2.7-12.4c2.7,0.5,5.9,0.5,8.1,0c2.7-1.1,4.9-2.2,5.9-4.3c1.1-2.2,1.1-3.8,0.5-5.9
		C670.2,349,668,347.9,664.2,349 M631.8,396.5c-8.6,0-13.5-3.2-13.5-20.5c0-12.4,4.3-21.1,13.5-21.1c10.8,0,13.5,8.1,13.5,21.1
		C645.9,394.4,639.9,396.5,631.8,396.5"/>
	<path d="M28.9,331.1v39.9c4.4-8,12-12.6,20.3-12.6c17.5,0,26.3,15.4,26.3,31.9c0,17.7-9.9,30.8-27.4,30.8c-8.2,0-15.3-4-19.7-11.4
		v9.7h-9.9v-88.4H28.9z M47,411.6c12,0,18.1-9.7,18.1-21.1c0-11.4-6.6-21.7-18.1-21.7c-11.5,0-18.1,10.8-18.1,21.7
		C28.4,401.3,35.5,411.6,47,411.6"/>
	<polygon points="135.7,359.7 98.4,444.7 87.5,444.7 101.7,411.6 79.8,359.1 91.3,359.1 107.8,398.4 124.7,359.1 135.7,359.1 	"/>
	<g>
		<path d="M816.8,327.1c-2.4,0-4.7,1.1-4.7,3.6c0,2.5,2,3.7,5.9,4.4c5.3,1,7.3,2.8,7.3,6c0,3.8-3.3,6.3-7.8,6.3
			c-3.8,0-7.4-1.8-9-6.6l1.9-1.2c1,3.5,3.3,5.8,7.1,5.8c3.3,0,5.6-1.6,5.6-4.3c0-2-1.3-3.3-5.9-4.1c-4.2-0.7-7.3-2.7-7.3-6.3
			c0-3.1,2.7-5.6,7-5.6c3.5,0,6.3,1.7,7.5,5l-1.9,1.1C821.7,328.5,819.7,327.1,816.8,327.1z"/>
		<path d="M851,347.2v-20.6l-8.3,20.6h-3.2l-8.3-20.6v20.6H829v-21.7h4l8.1,20.2l8.1-20.2h4v21.7H851z"/>
	</g>
</g>
</svg>
