<?xml version="1.0" encoding="utf-8"?>
<!-- Generator: Adobe Illustrator 23.0.1, SVG Export Plug-In . SVG Version: 6.00 Build 0)  -->
<svg version="1.1" id="Layer_1" xmlns="http://www.w3.org/2000/svg" xmlns:xlink="http://www.w3.org/1999/xlink" x="0px" y="0px"
	 viewBox="0 0 838.4 445.1" style="enable-background:new 0 0 838.4 445.1;" xml:space="preserve">
<style type="text/css">
	.st0{fill:#FFFFFF;}
</style>
<g>
	<g>
		<polygon class="st0" points="0.5,0.6 0.5,258.8 150.6,258.8 150.6,235.2 26.4,235.2 26.4,0.6 		"/>
		<path class="st0" d="M186.1,258.8h23.6V84h-23.6V258.8z M184.2,48.2h27.3V17.5h-27.3V48.2z"/>
		<path class="st0" d="M250.3,258.8h23.6V84h-23.6V258.8z M248.5,48.2h27.3V17.5h-27.3V48.2z"/>
		<path class="st0" d="M338.2,258.8v-94.4c0-31.4,19.2-62.7,53.9-62.7c29.9,0,45,16.6,45,49.8v107.4h23.6V146.3
			c0-39.8-20.7-66-62-66c-25.8,0-47.2,14-60.5,35.8V84h-23.6v174.9h23.6V258.8z"/>
		<polygon class="st0" points="574.3,153.7 639.2,84 609.7,84 524.9,176.5 524.9,0.6 501.2,0.6 501.2,258.8 524.9,258.8 
			524.9,207.2 557.7,172.1 617.5,258.8 647.3,258.8 		"/>
	</g>
	<path class="st0" d="M221.6,308.9h-37.8v3.2h11.9v62.7c0,18.9-5.4,24.3-16.7,24.3c-7.6,0-8.6-5.4-8.6-8.6c0-7-0.5-10.8-6.5-10.8
		c-6.5,0-7,6.5-7,8.1c0,8.6,3.8,15.1,21.1,15.1c20.5,0,31.3-7,31.3-29.7v-61h12.4L221.6,308.9L221.6,308.9z"/>
	<path class="st0" d="M226.5,388.8c-2.2,0-3.8,0.5-5.4,2.2c-1.6,1.6-2.2,3.2-2.2,5.4c0,2.2,0.5,3.8,2.2,5.4c1.6,1.6,3.2,2.2,5.4,2.2
		s3.8-0.5,5.4-2.2c1.6-1.6,2.2-3.2,2.2-5.4c0-2.2-0.5-3.8-2.2-5.4C230.8,389.3,228.6,388.8,226.5,388.8"/>
	<path class="st0" d="M310.7,388.8c-2.2,0-3.8,0.5-5.4,2.2c-1.6,1.6-2.2,3.2-2.2,5.4c0,2.2,0.5,3.8,2.2,5.4c1.6,1.6,3.2,2.2,5.4,2.2
		c2.2,0,3.8-0.5,5.4-2.2c1.6-1.6,2.2-3.2,2.2-5.4c0-2.2-0.5-3.8-2.2-5.4C314.5,389.3,312.9,388.8,310.7,388.8"/>
	<path class="st0" d="M284.3,308.9H247v3.2h10.8v71.8c0,5.4-0.5,7-1.1,8.6c-0.5,1.6-2.2,3.2-4.3,4.3c-1.6,0.5-4.3,1.1-7.6,1.1v2.7
		h40V398c-3.2,0-5.9-0.5-7.6-1.1c-2.2-1.1-3.8-2.2-4.9-4.3c-0.5-1.6-1.1-3.2-1.1-5.9v-24.3h9.7c28.6,0,36.7-11.3,36.7-27
		C318.3,319.7,313.4,308.9,284.3,308.9 M279.4,358.6h-7.6v-45.9h7c22.1,0,27,9.2,27,23.8C305.3,351,296.7,358.6,279.4,358.6"/>
	<path class="st0" d="M436.6,392.1c-0.5-1.6-0.5-3.8-0.5-6.5v-73.5h9.7v-2.7H422c-0.5,1.1-28.1,70.2-28.1,70.2l-0.5,0.5
		c-0.5,0-0.5,0-0.5-0.5c0,0-29.7-69.1-29.7-70.2h-25.9v2.7h11.3v71.3v6.5c0,1.6-0.5,3.2-1.6,4.3c-1.1,1.1-2.2,2.2-4.3,3.2
		c-1.1,0.5-3.2,0.5-5.4,0.5v2.7h25.9V398c-2.2,0-3.2-0.5-4.3-0.5c-2.2-0.5-3.2-1.6-4.3-2.7c-1.1-1.1-1.6-2.7-1.6-4.3l-0.5-6.5v-62.1
		h1.6c0,0,33.5,78.3,34,78.9h2.7l30.8-78.3h0.5v63.2c0,2.7-0.5,4.9-0.5,6.5c-0.5,2.2-2.2,3.2-3.8,4.3c-1.6,0.5-3.8,1.1-6.5,1.1v3.2
		h36.2V398c-2.7,0-4.9-0.5-6.5-1.1C438.7,395.8,437.1,394.2,436.6,392.1"/>
	<path class="st0" d="M485.2,333.7c-19.4,0-31.3,13-31.3,35.1c0,33,25.4,35.1,30.8,35.1c10.8,0,31.3-7,31.3-35.7
		C516.6,345.6,503,333.7,485.2,333.7 M485.2,399.6c-14.6,0-16.7-7-16.7-30.3c0-17.8,1.1-31.3,16.7-31.3c16.7,0,16.7,14,16.7,30.3
		C502,391.5,498.2,399.6,485.2,399.6"/>
	<path class="st0" d="M566.8,334.3c-11.3,0-15.1,7-18.4,13.5h-1.1c0,0-1.6-10.3-2.2-13H523v3.2h11.9v14v31.3c0,4.3-0.5,7.6-1.6,9.7
		c-1.1,2.2-3.8,3.2-8.6,3.2h-2.2v4.3h37.3v-3.8h-2.2c-4.9,0-7-1.1-8.1-3.2c-1.1-1.6-1.6-4.9-1.6-9.7V360c0-8.1,5.9-16.7,13-16.7
		c7.6,0,7.6,11.3,15.7,7C581.9,347.8,581.4,334.3,566.8,334.3"/>
	<path class="st0" d="M715.9,394.2c-3.8,0-5.4-2.2-5.4-5.9v-8.6V352c0-5.9-1.1-9.7-4.3-13.5c-3.2-3.2-10.3-5.4-20-5.4
		c-9.2,0-16.2,1.6-20.5,4.9c-4.3,3.2-5.9,6.5-5.9,10.8c0,2.2,0.5,3.2,1.6,4.3c1.1,1.1,2.7,1.6,4.3,1.6c3.8,0,5.9-2.2,6.5-7
		c0.5-3.8,1.6-5.9,3.2-7.6c2.2-2.2,4.9-3.2,9.2-3.2c4.9,0,8.1,1.1,9.7,3.8c1.6,2.2,2.7,5.4,2.7,9.7v10.8
		c-11.9,1.1-40.5,3.2-38.9,24.8c0.5,8.6,8.1,15.7,17.3,15.7c10.8,0,17.3-5.9,22.1-10.8c0.5,4.9,4.9,10.3,13,10.3
		c8.6,0,14-4.3,14.6-15.1h-2.2C721.3,391.5,718.1,394.2,715.9,394.2 M696.5,387.2C696.5,387.2,696.5,387.7,696.5,387.2l-0.5,0.5
		c-6.5,5.9-11.3,8.1-15.1,8.1c-9.2,0-10.8-7.6-10.8-11.3c0-12.4,16.7-18.4,25.9-18.4v21.1L696.5,387.2L696.5,387.2z"/>
	<path class="st0" d="M792.6,393.6c-1.1-1.6-2.2-4.9-2.2-9.7v-29.7c0-4.3-0.5-8.1-2.2-10.8c-1.6-2.7-3.8-5.4-7-6.5
		c-2.7-1.6-6.5-2.2-9.7-2.2c-13,0-18.4,8.1-21.1,13h-1.1l-2.2-11.9h-20.5v3.2H737v45.4c0,3.8-0.5,5.9-0.5,7.6
		c-0.5,2.2-1.6,3.2-3.8,4.3c-1.1,0.5-3.2,1.1-5.4,1.1v3.2h32.4v-4.3c-3.2,0-5.4-1.1-6.5-2.7s-1.6-4.9-1.6-9.2v-17.3
		c0-7,0-14,2.7-18.4c2.7-4.9,7.6-7.6,13-7.6c4.9,0,7.6,1.6,9.2,4.9c1.1,2.7,2.2,10.3,2.2,15.1v21.6c0,3.8,0.5,6.5,0,8.1
		c-0.5,2.2-1.1,3.8-2.7,4.3c-1.1,0.5-2.7,1.1-5.4,1.6v3.8h31.3v-4.3C796.4,396.3,793.7,395.2,792.6,393.6"/>
	<path class="st0" d="M646.2,331c-2.2,0.5-3.2,2.2-3.8,5.4c-0.5,2.7-1.6,4.3-2.7,4.9c-1.6,0.5-2.7,0.5-4.9-0.5
		c-3.2-3.2-9.7-7-21.1-7c-18.4,0-26.5,13-26.5,24.8c0,14,5.4,20.5,17.3,23.2c0.5,0,0.5,1.1,0,1.1c-10.3,2.2-18.9,4.9-18.9,14.6
		c0,5.9,3.2,8.6,7.6,10.8c4.9,1.6,11.3,2.7,19.4,3.2c7,0,12.4,0.5,15.7,0.5c3.8,0.5,6.5,1.6,8.6,2.7c2.2,1.6,3.2,4.3,3.2,7.6
		c0,4.3-2.2,8.1-7,10.8c-4.3,2.7-10.3,3.8-17.8,3.8c-6.5,0-11.3-0.5-16.2-3.8c-3.2-2.2-4.3-6.5-3.2-9.2c0.5-3.2-0.5-6.5-3.8-7
		c-2.2-0.5-4.3,0.5-5.4,2.7c-1.1,1.6-1.6,3.8-1.6,5.9c0,7.6,5.9,11.3,10.8,13c7,2.2,11.9,2.7,18.4,2.7c8.6,0,15.7-1.1,20.5-3.8
		c4.9-2.7,8.6-5.4,10.3-9.2c2.2-3.8,2.7-7,2.7-10.8c0-4.9-1.1-8.6-3.2-11.3c-6.5-9.2-15.7-7.6-36.7-8.6c-10.3,0-11.9-1.6-11.9-4.9
		c0-4.3,3.8-6.5,18.4-8.6c14-2.2,27.6-7.6,27.6-24.8c0-4.9-1.1-9.2-2.7-12.4c2.7,0.5,5.9,0.5,8.1,0c2.7-1.1,4.9-2.2,5.9-4.3
		c1.1-2.2,1.1-3.8,0.5-5.9C652.2,331,650,329.9,646.2,331 M613.8,378.5c-8.6,0-13.5-3.2-13.5-20.5c0-12.4,4.3-21.1,13.5-21.1
		c10.8,0,13.5,8.1,13.5,21.1C627.9,376.4,621.9,378.5,613.8,378.5"/>
	<path class="st0" d="M10.9,314.1V354c4.4-8,12-12.6,20.3-12.6c17.5,0,26.3,15.4,26.3,31.9c0,17.7-9.9,30.8-27.4,30.8
		c-8.2,0-15.3-4-19.7-11.4v9.7H0.5V314h10.4V314.1z M29,394.6c12,0,18.1-9.7,18.1-21.1s-6.6-21.7-18.1-21.7s-18.1,10.8-18.1,21.7
		C10.4,384.3,17.5,394.6,29,394.6"/>
	<polygon class="st0" points="117.7,341.7 80.4,426.7 69.5,426.7 83.7,393.6 61.8,341.1 73.3,341.1 89.8,380.4 106.7,341.1 
		117.7,341.1 	"/>
	<g>
		<path class="st0" d="M798.8,309.1c-2.4,0-4.7,1.1-4.7,3.6s2,3.7,5.9,4.4c5.3,1,7.3,2.8,7.3,6c0,3.8-3.3,6.3-7.8,6.3
			c-3.8,0-7.4-1.8-9-6.6l1.9-1.2c1,3.5,3.3,5.8,7.1,5.8c3.3,0,5.6-1.6,5.6-4.3c0-2-1.3-3.3-5.9-4.1c-4.2-0.7-7.3-2.7-7.3-6.3
			c0-3.1,2.7-5.6,7-5.6c3.5,0,6.3,1.7,7.5,5l-1.9,1.1C803.7,310.5,801.7,309.1,798.8,309.1z"/>
		<path class="st0" d="M833,329.2v-20.6l-8.3,20.6h-3.2l-8.3-20.6v20.6H811v-21.7h4l8.1,20.2l8.1-20.2h4v21.7H833z"/>
	</g>
</g>
</svg>
